<?xml version="1.0" standalone="no"?>
<!DOCTYPE svg PUBLIC "-//W3C//DTD SVG 20010904//EN"
 "http://www.w3.org/TR/2001/REC-SVG-20010904/DTD/svg10.dtd">
<svg version="1.0" xmlns="http://www.w3.org/2000/svg"
 width="834.000000pt" height="834.000000pt" viewBox="0 0 834.000000 834.000000"
 preserveAspectRatio="xMidYMid meet">
<metadata>
Created by potrace 1.11, written by Peter Selinger 2001-2013
</metadata>
<g transform="translate(0.000000,834.000000) scale(0.100000,-0.100000)"
fill="#000000" stroke="none">
<path d="M2970 7396 c-99 -21 -173 -77 -216 -163 -38 -77 -40 -192 -5 -265
109 -225 425 -235 546 -17 27 49 30 63 30 144 0 75 -4 98 -23 135 -47 89 -131
153 -220 166 -20 3 -41 6 -47 8 -5 2 -35 -2 -65 -8z"/>
<path d="M4620 7355 l0 -35 290 0 290 0 0 35 0 35 -290 0 -290 0 0 -35z"/>
<path d="M5980 7355 l0 -35 255 0 255 0 0 35 0 35 -255 0 -255 0 0 -35z"/>
<path d="M3665 7355 c-69 -29 -127 -81 -163 -150 -22 -42 -27 -63 -27 -130 0
-68 4 -89 28 -137 32 -66 80 -112 152 -144 59 -27 59 -27 338 -25 l217 1 -6
27 c-4 15 -8 39 -9 53 -1 24 -3 25 -88 30 -84 5 -87 6 -74 24 11 16 26 19 90
18 l76 -1 10 31 c6 17 11 33 11 34 0 2 -33 4 -73 4 l-74 0 5 30 c5 33 5 33
127 31 43 0 56 5 90 34 l40 35 -127 0 -127 0 -10 38 c-23 84 -93 161 -186 201
-55 24 -155 22 -220 -4z"/>
<path d="M4220 7216 l0 -33 593 1 592 1 3 33 3 32 -595 0 -596 0 0 -34z"/>
<path d="M5750 7216 l0 -33 420 0 420 0 0 33 0 34 -420 0 -420 0 0 -34z"/>
<path d="M2209 7227 c-179 -50 -273 -266 -189 -430 40 -77 126 -147 202 -163
140 -29 284 39 345 164 39 79 40 193 3 267 -64 131 -219 201 -361 162z"/>
<path d="M4680 7103 c14 -9 31 -25 37 -34 12 -16 45 -17 395 -16 l382 2 1 33
1 32 -420 0 c-399 0 -419 -1 -396 -17z"/>
<path d="M5628 7108 c-3 -7 -3 -22 0 -34 l4 -21 713 -2 c674 -1 714 0 717 16
2 10 2 26 0 36 -4 16 -47 17 -717 17 -550 0 -714 -3 -717 -12z"/>
<path d="M4780 6981 c0 -5 4 -21 9 -34 l10 -25 369 0 370 1 4 21 c9 47 17 46
-383 46 -228 0 -379 -4 -379 -9z"/>
<path d="M5624 6958 l2 -33 744 0 744 0 3 33 4 32 -749 0 -750 0 2 -32z"/>
<path d="M1514 6880 c-73 -29 -128 -81 -165 -155 -28 -58 -31 -71 -27 -142 8
-172 128 -293 294 -295 81 -1 137 17 198 63 82 63 121 153 114 263 -11 163
-125 274 -291 283 -55 2 -84 -2 -123 -17z"/>
<path d="M4800 6841 c0 -11 -3 -26 -6 -35 -5 -14 30 -15 333 -15 l339 0 0 34
-1 35 -332 0 c-322 0 -333 -1 -333 -19z"/>
<path d="M5638 6855 c-2 -3 -3 -18 0 -35 l4 -30 878 1 878 0 4 23 c3 12 3 27
0 34 -3 9 -203 12 -881 12 -483 0 -880 -2 -883 -5z"/>
<path d="M5670 6696 l0 -33 883 0 883 -1 2 34 3 34 -886 0 -885 0 0 -34z"/>
<path d="M3659 6618 c-1 -2 -2 -27 -3 -56 l-3 -52 596 2 c328 2 595 6 594 10
-1 4 4 26 12 49 8 23 15 43 15 45 0 2 -42 4 -94 4 -83 0 -99 -3 -142 -27 -43
-24 -60 -28 -134 -28 -73 0 -92 4 -138 28 l-54 27 -324 0 c-178 0 -324 -1
-325 -2z"/>
<path d="M5778 6588 c-3 -7 -2 -22 0 -35 l4 -22 857 2 856 2 3 33 3 32 -860 0
c-664 0 -860 -3 -863 -12z"/>
<path d="M3555 6438 l0 -53 651 -3 651 -2 -10 55 -10 55 -642 0 -641 0 1 -52z"/>
<path d="M5724 6438 l1 -33 945 0 945 0 1 33 1 32 -947 0 -946 0 0 -32z"/>
<path d="M1025 6399 c-107 -14 -193 -76 -241 -176 -38 -77 -37 -177 2 -257 56
-115 172 -183 296 -173 117 10 203 68 255 175 24 48 28 68 27 132 -2 90 -25
148 -84 209 -66 68 -163 102 -255 90z"/>
<path d="M3551 6305 l-2 -55 696 0 695 0 -35 46 c-19 25 -35 50 -35 55 0 5
-263 9 -658 9 l-659 0 -2 -55z"/>
<path d="M5878 6342 c-196 -2 -217 -4 -220 -20 -2 -9 -2 -25 0 -34 4 -16 58
-17 851 -13 465 2 910 4 989 5 141 0 142 0 142 23 0 12 -4 27 -8 33 -7 11
-1091 15 -1754 6z"/>
<path d="M3571 6175 l-1 -55 944 0 c894 0 944 1 941 18 -2 9 -4 34 -4 55 l-1
37 -65 0 c-42 0 -78 -6 -98 -17 -41 -21 -125 -41 -157 -36 -14 2 -38 5 -53 7
-15 3 -46 14 -68 25 -39 21 -50 21 -738 21 l-698 0 -2 -55z"/>
<path d="M5875 6176 l39 -33 853 0 853 0 0 34 0 33 -892 0 -893 0 40 -34z"/>
<path d="M3597 6093 c-4 -3 -7 -28 -7 -55 l0 -48 895 0 c893 0 895 0 895 20 0
11 7 36 14 55 l15 35 -903 0 c-496 0 -906 -3 -909 -7z"/>
<path d="M5950 6076 c0 -1 5 -17 11 -34 l10 -30 894 0 c826 0 894 1 897 16 2
10 2 25 0 35 -4 16 -56 17 -908 17 -497 0 -904 -2 -904 -4z"/>
<path d="M5979 5943 c0 -5 -2 -20 -4 -34 l-3 -26 924 0 924 0 0 33 0 34 -920
0 c-506 0 -920 -3 -921 -7z"/>
<path d="M3325 5788 l0 -53 1067 -3 1066 -2 -36 55 -36 55 -1031 0 -1030 0 0
-52z"/>
<path d="M5944 5808 c-4 -7 -14 -23 -22 -36 l-15 -22 957 0 c526 0 957 4 957
8 1 4 2 18 3 32 l1 25 -937 3 c-743 2 -938 0 -944 -10z"/>
<path d="M534 5762 c-166 -58 -246 -254 -170 -416 51 -109 144 -169 267 -173
65 -2 84 2 135 26 134 64 202 203 169 348 -41 177 -225 276 -401 215z"/>
<path d="M3304 5658 l2 -53 1081 -3 1081 -2 4 51 c1 28 1 53 -1 55 -2 2 -491
4 -1086 4 l-1082 0 1 -52z"/>
<path d="M5772 5671 c-24 -10 -43 -20 -43 -24 1 -4 1 -11 1 -16 0 -4 479 -8
1065 -8 l1065 0 0 33 0 34 -1022 -1 c-941 -1 -1026 -2 -1066 -18z"/>
<path d="M3185 5398 l0 -53 1183 -3 1182 -2 0 55 0 55 -1183 0 -1183 0 1 -52z"/>
<path d="M5765 5419 c-4 -6 -5 -12 -2 -15 2 -3 7 2 10 11 7 17 1 20 -8 4z"/>
<path d="M6343 5395 l10 -35 819 0 818 0 0 35 0 35 -829 0 -829 0 11 -35z"/>
<path d="M3170 5265 l0 -55 1164 0 c1091 0 1165 1 1168 17 2 10 1 34 0 55 l-4
38 -1164 0 -1164 0 0 -55z"/>
<path d="M6360 5281 c0 -11 -3 -26 -6 -35 -5 -13 83 -15 823 -13 l828 2 0 30
0 30 -822 3 c-806 2 -823 2 -823 -17z"/>
<path d="M5751 5244 c0 -11 3 -14 6 -6 3 7 2 16 -1 19 -3 4 -6 -2 -5 -13z"/>
<path d="M309 5156 c-158 -41 -259 -203 -222 -361 33 -145 150 -238 298 -239
122 0 220 62 275 175 109 229 -104 487 -351 425z"/>
<path d="M3039 5135 c-1 -8 -1 -26 -1 -40 0 -14 0 -32 1 -40 1 -13 140 -15
1191 -15 l1190 0 0 55 0 55 -1190 0 c-1051 0 -1190 -2 -1191 -15z"/>
<path d="M5610 5095 l0 -55 343 0 c238 0 346 3 354 11 8 8 267 11 917 11 l906
1 0 33 0 34 -910 0 c-600 0 -910 3 -910 10 0 20 -68 10 -116 -17 -43 -24 -60
-28 -134 -28 -74 0 -93 4 -139 28 -50 25 -61 27 -182 27 l-129 0 0 -55z"/>
<path d="M3026 4993 c1 -16 3 -40 3 -55 l1 -28 1238 0 1238 0 -2 28 c-1 15 -3
39 -3 55 l-1 27 -1238 0 -1238 0 2 -27z"/>
<path d="M5888 5012 l-258 -2 0 -55 0 -55 211 0 211 0 72 35 c100 50 159 50
288 3 29 -11 187 -13 855 -11 450 2 829 5 843 7 20 2 26 9 28 34 l3 31 -905
-4 c-700 -3 -907 -1 -913 8 -9 13 -27 14 -435 9z"/>
<path d="M3030 4835 l0 -55 1220 0 1220 0 0 55 0 55 -1220 0 -1220 0 0 -55z"/>
<path d="M5664 4835 l1 -55 163 0 c129 0 162 3 162 13 0 8 14 33 30 55 l30 42
-193 0 -194 0 1 -55z"/>
<path d="M6500 4865 c0 -3 9 -19 21 -34 l21 -28 776 -1 c428 0 784 1 792 4 9
2 16 16 16 34 l2 30 -814 0 c-448 0 -814 -2 -814 -5z"/>
<path d="M2959 4758 c-1 -2 -2 -27 -4 -55 l-2 -53 1283 0 c1134 0 1284 2 1285
15 1 8 1 26 1 40 0 14 0 32 -1 40 -1 13 -150 15 -1281 15 -704 0 -1280 -1
-1281 -2z"/>
<path d="M5640 4705 l0 -55 160 0 c121 0 160 3 161 13 0 6 2 31 5 55 l4 42
-165 0 -165 0 0 -55z"/>
<path d="M6567 4732 c-3 -4 -3 -19 0 -34 l5 -27 641 2 641 2 1 33 1 32 -643 0
c-353 0 -644 -3 -646 -8z"/>
<path d="M2959 4628 c-1 -2 -2 -27 -3 -55 -2 -49 0 -53 21 -53 19 0 22 -5 21
-42 0 -24 0 -49 1 -55 1 -10 259 -13 1256 -13 1188 0 1255 1 1256 18 1 9 0 34
-1 54 -1 37 -1 37 42 40 l43 3 1 53 1 52 -1319 0 c-725 0 -1319 -1 -1319 -2z"/>
<path d="M5609 4573 c-1 -32 -2 -82 -4 -110 l-2 -53 270 0 270 0 -38 26 c-79
53 -135 126 -135 174 0 19 -8 20 -180 20 l-180 0 -1 -57z"/>
<path d="M6553 4577 l-10 -34 826 1 826 1 1 33 1 32 -817 0 -817 0 -10 -33z"/>
<path d="M6489 4483 c-8 -9 -27 -24 -44 -35 -29 -17 -8 -18 846 -18 482 0 878
2 881 5 2 3 3 18 0 35 l-4 30 -833 0 c-764 0 -834 -1 -846 -17z"/>
<path d="M213 4421 c-122 -41 -204 -156 -204 -286 0 -64 6 -88 31 -139 25 -50
44 -73 91 -109 149 -113 373 -59 456 111 24 48 28 69 27 137 0 91 -25 152 -86
214 -74 76 -211 107 -315 72z"/>
<path d="M2861 4205 l-2 -55 1351 0 1350 0 0 55 0 55 -1348 0 -1349 0 -2 -55z"/>
<path d="M5664 4205 l0 -55 199 0 c199 0 200 0 234 26 64 49 174 81 220 63 17
-6 21 -5 16 6 -4 13 -56 15 -337 15 l-331 0 -1 -55z"/>
<path d="M6395 4223 c22 -9 51 -24 65 -33 23 -16 91 -18 937 -18 l911 0 4 22
c3 12 3 27 0 34 -3 9 -224 12 -980 11 -909 0 -974 -1 -937 -16z"/>
<path d="M5610 4080 l0 -55 190 0 191 0 29 54 c17 30 30 55 30 55 0 1 -99 1
-220 1 l-220 1 0 -56z"/>
<path d="M2847 4123 c-2 -5 -3 -28 -3 -53 l1 -45 1375 0 1375 0 0 53 1 52
-1372 0 c-755 0 -1375 -3 -1377 -7z"/>
<path d="M6593 4112 l-52 -3 17 -33 17 -34 858 1 857 0 0 33 0 34 -697 0
c-384 1 -754 2 -823 3 -69 1 -148 1 -177 -1z"/>
<path d="M2845 3945 l0 -55 1372 0 1373 0 0 55 0 55 -1373 0 -1372 0 0 -55z"/>
<path d="M2824 3818 l2 -53 1377 -3 1377 -2 0 55 0 55 -1378 0 -1379 0 1 -52z"/>
<path d="M5610 3815 c0 -52 1 -55 25 -55 24 0 25 -2 22 -55 l-2 -56 352 3
c236 2 356 7 363 14 12 12 -13 12 -43 -1 -52 -22 -181 15 -239 70 -15 14 -31
25 -37 25 -10 0 -51 79 -51 98 0 9 -51 12 -195 12 l-195 0 0 -55z"/>
<path d="M6566 3818 c-9 -17 -16 -32 -16 -33 0 -2 403 -3 895 -2 l895 0 0 34
0 33 -879 0 -880 0 -15 -32z"/>
<path d="M6480 3725 c-8 -8 -33 -23 -55 -34 l-40 -20 978 0 977 -1 0 35 0 35
-923 0 c-797 0 -925 -2 -937 -15z"/>
<path d="M332 3699 c-49 -16 -74 -31 -116 -74 -220 -219 -10 -586 291 -509
184 47 280 255 198 428 -65 137 -221 202 -373 155z"/>
<path d="M2859 3620 c0 -5 -1 -26 -1 -45 0 -19 1 -39 1 -45 1 -7 460 -10 1356
-10 l1355 0 0 55 0 55 -1355 0 c-896 0 -1355 -3 -1356 -10z"/>
<path d="M5739 3620 c0 -5 -1 -26 -1 -45 0 -19 1 -40 1 -45 1 -13 521 -10 521
2 0 5 460 9 1022 10 l1023 3 1 33 1 32 -1023 0 c-676 0 -1024 3 -1024 10 0 6
-93 10 -260 10 -166 0 -260 -4 -261 -10z"/>
<path d="M2941 3490 c-11 -8 -8 -100 4 -101 5 -1 404 -1 885 0 481 0 1067 1
1303 1 l427 0 0 55 0 55 -1306 -3 c-718 -1 -1309 -4 -1313 -7z"/>
<path d="M5599 3498 c-1 -4 -1 -80 0 -95 1 -10 35 -13 135 -13 133 0 135 0
155 26 11 14 37 39 57 55 l37 29 -192 0 c-105 0 -191 -1 -192 -2z"/>
<path d="M6333 3445 l37 -35 924 0 924 0 -2 33 -3 32 -958 3 -959 2 37 -35z"/>
<path d="M2859 3215 c-1 -14 -1 -34 -1 -45 0 -11 0 -24 1 -30 1 -7 452 -10
1331 -10 1175 0 1330 2 1331 15 1 8 1 26 1 40 0 14 0 32 -1 40 -1 13 -156 15
-1331 15 l-1330 0 -1 -25z"/>
<path d="M5679 3238 c-1 -2 -2 -27 -4 -55 l-2 -53 83 0 84 0 -11 28 c-6 15
-10 28 -10 30 1 1 1 13 1 27 0 24 -2 25 -70 25 -38 0 -70 -1 -71 -2z"/>
<path d="M6429 3211 c0 -3 -3 -18 -5 -33 l-4 -26 938 -1 938 0 2 33 2 32 -935
1 c-514 0 -935 -3 -936 -6z"/>
<path d="M2950 3055 l0 -55 1255 0 1255 0 0 55 0 55 -1255 0 -1255 0 0 -55z"/>
<path d="M5620 3055 l0 -55 150 0 150 0 -35 46 c-19 25 -35 50 -35 55 0 5 -51
9 -115 9 l-115 0 0 -55z"/>
<path d="M6372 3056 l-20 -33 969 0 969 0 0 33 0 34 -949 0 -949 0 -20 -34z"/>
<path d="M645 3015 c-140 -42 -227 -162 -220 -304 3 -76 21 -126 66 -183 129
-162 390 -144 498 34 32 53 42 94 42 168 0 157 -127 288 -286 295 -33 1 -78
-3 -100 -10z"/>
<path d="M3043 2972 c-33 -3 -33 -4 -33 -55 l0 -52 1248 1 c686 1 1250 2 1254
3 3 0 6 24 6 51 1 40 -2 50 -16 51 -58 2 -2433 3 -2459 1z"/>
<path d="M5579 2968 c0 -7 -2 -32 -2 -56 l-2 -42 287 0 c195 0 287 3 290 11 2
7 301 10 1001 11 l997 0 0 34 0 34 -944 0 c-783 0 -949 -2 -977 -14 -76 -31
-192 -22 -256 20 -30 19 -392 21 -394 2z"/>
<path d="M3054 2798 l1 -53 1239 -3 1240 -2 23 22 c15 14 23 33 23 55 l0 33
-1263 0 -1263 0 0 -52z"/>
<path d="M5962 2799 l42 -35 1033 -1 1033 -1 0 34 0 34 -1075 2 -1074 3 41
-36z"/>
<path d="M5600 2820 c0 -13 11 -13 30 0 12 8 11 10 -7 10 -13 0 -23 -4 -23
-10z"/>
<path d="M3085 2665 l0 -55 1197 0 1198 0 14 33 c7 19 17 43 20 55 l7 22
-1218 0 -1218 0 0 -55z"/>
<path d="M6065 2668 l13 -33 1055 -2 c1125 -3 1070 -5 1063 43 -3 18 -39 19
-1074 22 l-1071 2 14 -32z"/>
<path d="M3170 2535 l0 -55 1161 0 1161 0 -6 23 c-3 12 -6 37 -6 55 l0 32
-1155 0 -1155 0 0 -55z"/>
<path d="M6083 2535 l-1 -35 929 0 929 0 0 35 0 35 -928 0 -928 0 -1 -35z"/>
<path d="M1122 2424 c-68 -14 -138 -57 -175 -107 -47 -64 -61 -108 -61 -192 0
-67 5 -88 27 -130 33 -63 77 -109 129 -136 55 -28 72 -32 153 -32 161 -2 282
114 293 279 6 94 -15 158 -74 223 -77 85 -178 118 -292 95z"/>
<path d="M6041 2405 l-20 -35 969 0 c914 0 969 1 972 18 2 9 2 25 0 35 -4 16
-58 17 -952 17 l-948 0 -21 -35z"/>
<path d="M3190 2275 l0 -55 949 0 c634 0 952 3 956 10 13 21 107 61 158 66 29
3 70 1 89 -4 34 -9 36 -8 41 14 l4 24 -1098 0 -1099 0 0 -55z"/>
<path d="M5902 2284 c-32 -14 -74 -25 -103 -26 -27 0 -52 -5 -55 -9 -3 -5 301
-9 693 -10 1154 -1 1457 -1 1486 0 26 1 28 4 24 34 l-3 32 -995 2 -994 2 -53
-25z"/>
<path d="M3281 2145 l0 -55 857 0 857 1 32 54 31 55 -888 0 -889 0 0 -55z"/>
<path d="M5637 2154 c-2 -12 -1 -27 2 -33 4 -6 393 -9 1126 -8 l1119 2 1 28
c2 20 -3 28 -19 32 -12 2 -517 3 -1123 3 l-1101 -1 -5 -23z"/>
<path d="M3400 2017 l0 -54 793 -1 792 -2 1 55 1 55 -793 0 -794 0 0 -53z"/>
<path d="M5616 2023 c1 -16 2 -31 3 -34 1 -3 486 -5 1078 -5 l1077 1 2 33 2
32 -1083 0 -1082 0 3 -27z"/>
<path d="M1679 1957 c-251 -94 -274 -432 -38 -562 47 -26 64 -30 134 -29 100
0 167 27 226 91 52 56 78 115 83 187 8 127 -55 240 -167 298 -52 27 -184 35
-238 15z"/>
<path d="M3491 1885 l-2 -55 503 0 503 0 59 24 c73 30 159 29 230 -2 39 -18
68 -22 146 -22 l97 0 -21 55 -21 55 -746 0 -746 0 -2 -55z"/>
<path d="M5630 1886 l0 -34 1012 0 c673 -1 1015 2 1019 9 3 6 4 21 1 35 l-4
24 -1014 0 -1014 0 0 -34z"/>
<path d="M3681 1755 l1 -55 354 0 353 0 12 23 c6 12 25 37 42 55 l31 32 -397
0 -396 0 0 -55z"/>
<path d="M4882 1783 c14 -16 33 -40 43 -55 l17 -28 132 0 131 0 -41 19 c-23
11 -60 35 -82 55 -39 36 -40 36 -133 36 l-93 0 26 -27z"/>
<path d="M5684 1758 l3 -33 976 -1 977 -1 0 34 0 33 -979 0 -979 0 2 -32z"/>
<path d="M2449 1675 c-2 -1 -21 -5 -41 -8 -96 -12 -202 -110 -231 -211 -68
-238 155 -454 388 -377 260 86 280 455 32 566 -46 20 -139 39 -148 30z"/>
<path d="M3762 1625 c1 -30 4 -55 8 -55 4 0 32 11 63 25 30 14 75 27 99 29 48
3 141 -18 175 -40 24 -15 252 -21 254 -6 0 4 2 18 3 32 1 14 6 35 10 48 l7 22
-309 0 -310 0 0 -55z"/>
<path d="M4960 1641 c0 -53 -10 -51 300 -51 l288 0 4 35 4 35 -298 0 c-287 0
-298 -1 -298 -19z"/>
<path d="M5680 1625 l0 -36 843 3 842 3 3 33 3 32 -845 0 -846 0 0 -35z"/>
<path d="M3116 1539 c-32 -11 -74 -32 -93 -46 -118 -90 -153 -274 -75 -398 96
-153 290 -195 438 -94 85 58 129 145 128 254 -2 208 -201 350 -398 284z"/>
<path d="M4188 1516 c17 -19 33 -44 37 -55 6 -19 14 -21 87 -21 66 0 79 3 75
14 -3 8 -11 33 -17 55 l-11 41 -100 0 -101 0 30 -34z"/>
<path d="M4960 1518 c0 -7 -3 -23 -6 -36 l-6 -22 303 2 304 3 3 33 3 32 -300
0 c-234 0 -301 -3 -301 -12z"/>
<path d="M5710 1495 l0 -35 784 0 784 0 0 35 0 35 -784 0 -784 0 0 -35z"/>
<path d="M4254 1383 c3 -21 6 -46 6 -55 0 -16 13 -18 127 -18 l128 0 -30 21
c-17 12 -42 37 -55 55 -25 33 -26 33 -104 34 l-79 0 7 -37z"/>
<path d="M4880 1365 l-34 -35 385 0 384 0 0 35 0 35 -351 0 -350 0 -34 -35z"/>
<path d="M5739 1398 c-1 -2 -2 -18 -4 -35 l-3 -33 713 0 713 0 -2 33 -3 32
-706 3 c-389 1 -707 1 -708 0z"/>
<path d="M4230 1237 l0 -34 620 -1 620 0 0 34 0 33 -620 1 -620 0 0 -33z"/>
<path d="M5702 1234 l-3 -34 606 0 605 0 0 34 0 34 -603 0 -603 1 -2 -35z"/>
<path d="M5049 1122 c-1 -4 -2 -19 -3 -34 l-3 -28 138 0 c123 0 138 2 141 18
11 48 5 51 -138 51 -74 0 -134 -3 -135 -7z"/>
<path d="M5778 1107 c-9 -46 -6 -47 181 -47 l177 0 -4 34 -4 34 -173 2 -173 1
-4 -24z"/>
</g>
</svg>
